STARTFONT 2.1
COMMENT
COMMENT  This font only contains 7-Segment LED style digits for my clock.
COMMENT  Feel free to do what you want with it.
COMMENT  - Vic Ricker
COMMENT
COMMENT  Produced with bdfedit, a tcl/tk font editing program
COMMENT    written by Thomas A. Fine
COMMENT    Email to my last name at head.cfa.harvard.edu
COMMENT    http://hea-www.harvard.edu/~fine/
FONT Seven Segment
SIZE 13 72 72
FONTBOUNDINGBOX 16 25 0 0
STARTPROPERTIES 11
FOUNDRY "Fine"
FAMILY_NAME ""
WEIGHT_NAME "Medium"
SLANT "R"
SETWIDTH_NAME "Normal"
SPACING "c"
CHARSET_REGISTRY "ISO-8859"
CHARSET_ENCODING "1"
COPYRIGHT "Public domain font.  Share and enjoy!"
FONT_ASCENT  25
FONT_DESCENT 0
ENDPROPERTIES
CHARS 24
STARTCHAR C000
ENCODING 0
SWIDTH 1307 0
DWIDTH 17 0
BBX 0 0 0 0
BITMAP
ENDCHAR
STARTCHAR C001
ENCODING 1
SWIDTH 1307 0
DWIDTH 17 0
BBX 0 0 0 0
BITMAP
ENDCHAR
STARTCHAR C002
ENCODING 2
SWIDTH 1307 0
DWIDTH 17 0
BBX 0 0 0 0
BITMAP
ENDCHAR
STARTCHAR C003
ENCODING 3
SWIDTH 1307 0
DWIDTH 17 0
BBX 0 0 0 0
BITMAP
ENDCHAR
STARTCHAR C004
ENCODING 4
SWIDTH 1307 0
DWIDTH 17 0
BBX 0 0 0 0
BITMAP
ENDCHAR
STARTCHAR C005
ENCODING 5
SWIDTH 1307 0
DWIDTH 17 0
BBX 0 0 0 0
BITMAP
ENDCHAR
STARTCHAR C006
ENCODING 6
SWIDTH 1307 0
DWIDTH 17 0
BBX 0 0 0 0
BITMAP
ENDCHAR
STARTCHAR C007
ENCODING 7
SWIDTH 1307 0
DWIDTH 17 0
BBX 0 0 0 0
BITMAP
ENDCHAR
STARTCHAR Eight
ENCODING 8
SWIDTH 1307 0
DWIDTH 17 0
BBX 0 0 0 0
BITMAP
ENDCHAR
STARTCHAR C011
ENCODING 9
SWIDTH 1307 0
DWIDTH 17 0
BBX 0 0 0 0
BITMAP
ENDCHAR
STARTCHAR C043
ENCODING 35
SWIDTH 1307 0
DWIDTH 17 0
BBX 0 0 0 0
BITMAP
ENDCHAR
STARTCHAR C055
ENCODING 45
SWIDTH 1307 0
DWIDTH 17 0
BBX 9 3 4 11
BITMAP
7f00
ff80
7f00
ENDCHAR
STARTCHAR C056
ENCODING 46
SWIDTH 1307 0
DWIDTH 17 0
BBX 3 3 6 3
BITMAP
e0
e0
e0
ENDCHAR
STARTCHAR C060
ENCODING 48
SWIDTH 1230 0
DWIDTH 16 0
BBX 15 25 0 0
BITMAP
0fe0
1ff0
4fe4
e00e
e00e
e00e
e00e
e00e
e00e
e00e
e00e
4004
0000
4004
e00e
e00e
e00e
e00e
e00e
e00e
e00e
e00e
4fe4
1ff0
0fe0
ENDCHAR
STARTCHAR C061
ENCODING 49
SWIDTH 1230 0
DWIDTH 16 0
BBX 3 21 12 2
BITMAP
40
e0
e0
e0
e0
e0
e0
e0
e0
40
00
40
e0
e0
e0
e0
e0
e0
e0
e0
40
ENDCHAR
STARTCHAR C062
ENCODING 50
SWIDTH 1230 0
DWIDTH 16 0
BBX 15 25 0 0
BITMAP
0fe0
1ff0
0fe4
000e
000e
000e
000e
000e
000e
000e
000e
0fe4
1ff0
4fe0
e000
e000
e000
e000
e000
e000
e000
e000
4fe0
1ff0
0fe0
ENDCHAR
STARTCHAR C063
ENCODING 51
SWIDTH 1230 0
DWIDTH 16 0
BBX 12 25 3 0
BITMAP
7f00
ff80
7f20
0070
0070
0070
0070
0070
0070
0070
0070
7f20
ff80
7f20
0070
0070
0070
0070
0070
0070
0070
0070
7f20
ff80
7f00
ENDCHAR
STARTCHAR C064
ENCODING 52
SWIDTH 1230 0
DWIDTH 16 0
BBX 15 21 0 2
BITMAP
4004
e00e
e00e
e00e
e00e
e00e
e00e
e00e
e00e
4fe4
1ff0
0fe4
000e
000e
000e
000e
000e
000e
000e
000e
0004
ENDCHAR
STARTCHAR C065
ENCODING 53
SWIDTH 1230 0
DWIDTH 16 0
BBX 15 25 0 0
BITMAP
0fe0
1ff0
4fe0
e000
e000
e000
e000
e000
e000
e000
e000
4fe0
1ff0
0fe4
000e
000e
000e
000e
000e
000e
000e
000e
0fe4
1ff0
0fe0
ENDCHAR
STARTCHAR C066
ENCODING 54
SWIDTH 1230 0
DWIDTH 16 0
BBX 15 25 0 0
BITMAP
0fe0
1ff0
4fe0
e000
e000
e000
e000
e000
e000
e000
e000
4fe0
1ff0
4fe4
e00e
e00e
e00e
e00e
e00e
e00e
e00e
e00e
4fe4
1ff0
0fe0
ENDCHAR
STARTCHAR C067
ENCODING 55
SWIDTH 1230 0
DWIDTH 16 0
BBX 12 23 3 2
BITMAP
7f00
ff80
7f20
0070
0070
0070
0070
0070
0070
0070
0070
0020
0000
0020
0070
0070
0070
0070
0070
0070
0070
0070
0020
ENDCHAR
STARTCHAR C070
ENCODING 56
SWIDTH 1230 0
DWIDTH 16 0
BBX 15 25 0 0
BITMAP
0fe0
1ff0
4fe4
e00e
e00e
e00e
e00e
e00e
e00e
e00e
e00e
4fe4
1ff0
4fe4
e00e
e00e
e00e
e00e
e00e
e00e
e00e
e00e
4fe4
1ff0
0fe0
ENDCHAR
STARTCHAR C071
ENCODING 57
SWIDTH 1230 0
DWIDTH 16 0
BBX 15 25 0 0
BITMAP
0fe0
1ff0
4fe4
e00e
e00e
e00e
e00e
e00e
e00e
e00e
e00e
4fe4
1ff0
0fe4
000e
000e
000e
000e
000e
000e
000e
000e
0fe4
1ff0
0fe0
ENDCHAR
STARTCHAR C072
ENCODING 58
SWIDTH 1230 0
DWIDTH 16 0
BBX 3 10 6 8
BITMAP
e0
e0
e0
00
00
00
00
e0
e0
e0
ENDCHAR
ENDFONT
